<?xml version="1.0" encoding="UTF-8"?>
<svg id="Layer_2" data-name="Layer 2" xmlns="http://www.w3.org/2000/svg" xmlns:xlink="http://www.w3.org/1999/xlink" viewBox="0 0 1462.94 1621.52">
  <defs>
    <style>
      .cls-1 {
        fill: url(#linear-gradient-2);
      }

      .cls-2 {
        fill: #db672e;
      }

      .cls-3 {
        fill: #dd672a;
      }

      .cls-4 {
        fill: #0f0704;
      }

      .cls-5 {
        fill: #292e36;
      }

      .cls-6 {
        fill: #ef872d;
      }

      .cls-7 {
        fill: #591719;
      }

      .cls-8 {
        fill: #fafcfc;
      }

      .cls-9 {
        fill: url(#linear-gradient-6);
      }

      .cls-10 {
        fill: #1f0703;
      }

      .cls-11 {
        fill: #f9fbfc;
      }

      .cls-12 {
        fill: #f0af55;
      }

      .cls-13 {
        fill: #f7a836;
      }

      .cls-14 {
        fill: #180702;
      }

      .cls-15 {
        fill: #f5f9fa;
      }

      .cls-16 {
        fill: url(#linear-gradient-5);
      }

      .cls-17 {
        fill: #333740;
      }

      .cls-18 {
        fill: #23252f;
      }

      .cls-19 {
        fill: #b74430;
      }

      .cls-20 {
        fill: url(#linear-gradient-3);
      }

      .cls-21 {
        fill: url(#linear-gradient);
      }

      .cls-22 {
        fill: url(#linear-gradient-4);
      }

      .cls-23 {
        fill: #f8d456;
      }
    </style>
    <linearGradient id="linear-gradient" x1="954.77" y1="1369.52" x2="1234.53" y2="1089.75" gradientUnits="userSpaceOnUse">
      <stop offset="0" stop-color="#e5833f"/>
      <stop offset=".23" stop-color="#eb9a4b"/>
      <stop offset=".45" stop-color="#f0af55"/>
      <stop offset=".64" stop-color="#f6ca64"/>
      <stop offset=".81" stop-color="#fced80"/>
    </linearGradient>
    <linearGradient id="linear-gradient-2" x1="312.36" y1="815.86" x2="1312.68" y2="815.86" gradientUnits="userSpaceOnUse">
      <stop offset="0" stop-color="#cc522f"/>
      <stop offset=".18" stop-color="#de642c"/>
      <stop offset=".48" stop-color="#eb8931"/>
      <stop offset=".74" stop-color="#f7a836"/>
      <stop offset="1" stop-color="#f8ba3d"/>
    </linearGradient>
    <linearGradient id="linear-gradient-3" x1="603.43" y1="179.85" x2="420.63" y2="285.39" gradientUnits="userSpaceOnUse">
      <stop offset="0" stop-color="#ab3c30"/>
      <stop offset=".13" stop-color="#b94830"/>
      <stop offset=".4" stop-color="#d25e30"/>
      <stop offset=".57" stop-color="#db6630"/>
      <stop offset=".83" stop-color="#ea8332"/>
      <stop offset="1" stop-color="#f19c37"/>
    </linearGradient>
    <linearGradient id="linear-gradient-4" x1="502.35" y1="1433.94" x2="981.72" y2="1433.94" gradientUnits="userSpaceOnUse">
      <stop offset="0" stop-color="#78251d"/>
      <stop offset="1" stop-color="#8b2f23"/>
    </linearGradient>
    <linearGradient id="linear-gradient-5" x1="871.26" y1="772.73" x2="871.26" y2="976.94" gradientUnits="userSpaceOnUse">
      <stop offset="0" stop-color="#040511"/>
      <stop offset=".34" stop-color="#060713"/>
      <stop offset=".58" stop-color="#0f1019"/>
      <stop offset=".79" stop-color="#1f1f25"/>
      <stop offset=".98" stop-color="#343535"/>
      <stop offset="1" stop-color="#383838"/>
    </linearGradient>
    <linearGradient id="linear-gradient-6" x1="1233.06" y1="799.87" x2="1233.06" y2="949.8" xlink:href="#linear-gradient-5"/>
  </defs>
  <g id="Layer_1-2" data-name="Layer 1">
    <path class="cls-18" d="M9.83,1619.21c-12.07,2.07-9.63-6.61-9.63-13.24-.03-83.43,0-166.86,0-250.29,.01-194-.43-388.01,.2-582.01,.35-107.98,28.67-208.57,85.83-300.33,57.55-92.39,137.26-160.26,234.27-208.29,6.24-3.09,10.7-4.42,8.74-13.8-14.42-69.09-15.89-139.63-22.22-209.63-1-11.01-1.41-22.07-2.63-33.05-.8-7.2,1.83-9.63,8.26-6.82,10.34,4.53,22.8,7.71,30.86,13.97,4.73,5.88-6.09,26.9-9.35,18.15-1.71-4.57-.37-10.08-5-15.01,1.25,21.6,4.91,41.77,9.41,61.74,10.94,48.53,19.39,97.64,33.57,145.43,24.53,82.67,68.63,151.2,141.18,200.04,17.88,12.04,36.69,22.76,53.64,36.17,5.21,4.12,12.99,7.36,8.34,16.64-11.19,7.64-24.71,5.67-36.93,9.02-40.47,7.49-74.69,27.38-106.32,52.93-64.42,52.02-98.83,120.71-112.51,201.13-.34,1.98-.77,3.94-1.39,5.88,.16,59.52,.08,119,.11,178.47,0,6.5,.19,13-.54,19.48,1.44,85.37,.26,170.75,.66,256.12,.02,5.02,.09,10.05-.62,15.04,1.29,123.96,.36,247.92,.58,371.88,.02,8.97,10.04,19.47,6.38,28.12-1.9,3.64-14.09,2.9-17.8,2.88-99.03-.38-198.06,.83-297.08-.65Z"/>
    <path class="cls-5" d="M1113.92,346.41c-52.86-48.13-115.45-79.41-181.43-104.85-4.74-1.83-11.59-1.14-12.45-8.7,29.49-77.12,58.98-154.26,89.03-232.86,5.56,9.15,10.15,16.71,14.75,24.28,19.06,47.34,38.66,94.47,57.02,142.07,20.3,52.63,32.55,107.25,36.45,163.61,.38,5.52,3.38,12.16-3.37,16.46Z"/>
    <path class="cls-23" d="M1125.97,981.1c62.22,.02,124.44,.03,186.66,.05,50.02,52.79,100.04,105.59,150.06,158.38-3.47,5.42-9.14,5.92-14.62,5.92-56.07-.03-112.15,1.37-168.18-.65-4.01-.72-7.47-2.53-10.28-5.57-45.63-49.43-92.96-97.25-138.71-146.56-2.92-3.15-6.86-6.19-4.93-11.56Z"/>
    <path class="cls-7" d="M1273.55,1140.71c52.55-.25,105.09-.49,157.64-.77,10.51-.06,21.01-.26,31.51-.41,1.29,34.46-2.89,68.7-4.92,103.01-.74,12.54,3.03,25.99-5.12,37.61-14.39,5.06-29.61,5.62-44.45,6.26-41.52,1.77-82.86,5.82-124.31,8.34-5.6,.34-11.05,.4-15.71-3.4-3.61-3.43-4.18-7.82-3.93-12.47,.1-1.74,.44-3.44,.93-5.11,2.26-11.73,1.02-23.55,.71-35.36-.02-12.56-.37-25.12,.05-37.68-.98-16.04,2.55-31.79,3.09-47.73,.15-4.5,.77-9.01,4.5-12.28Z"/>
    <path class="cls-19" d="M1155.86,1402.56c-52.36,.33-104.73,.62-157.09,1.04-5.89,.05-12.04,.94-17.51,4.46-2.4,.36-30,1.2-41.41,.97-49.87-.53-98.64-7.11-147-17.68-71.61-15.66-140.95-43.53-206.96-75.98-5.62-2.76-93.75-73.17-96.62-83.27-3.81-13.39,80.02,33.69,95.33,39.22,98.38,35.54,200.65,57.23,304.37,69.74,15.89,1.92,31.81,3.64,47.59,6.43,56.88,12.32,113.28,26.79,170.3,38.52,12.28,2.53,24.87,3.69,36.81,7.69,4.83,1.62,11.52,1.29,12.2,8.87Z"/>
    <path class="cls-21" d="M1273.02,1139.9c.34,.53,.51,1.14,.48,1.77-1.06,19.73-2.14,39.45-3.2,59.17-.16,13.09-.31,26.19-.47,39.27,0,.17-1.86,43.47-1.6,47.19,.02,.23,.01,.46-.03,.69-1.03,6.53-7,9.9-9.9,15.22t-.02,.01h.02c-9.57,12.55-19.13,25.11-28.69,37.68-.52,.68-1.31,1.11-2.16,1.17-19.16,1.31-38.07-2.26-57.11-3.25-5.67-.29-10.82-2.93-14.82-6.75-15.48-14.79-32.25-28.41-43.54-47.08-.06-.1-.12-.21-.17-.32-3.72-8.11-6.36-8.89-11.77-3.05-.47,.51-.78,1.17-.81,1.86-.66,15.15,13.19,20.74,20.8,30.44,.16,.2,.29,.42,.39,.66,.43,.97,.75,1.94,.84,2.89,.1,1.01,.62,1.93,1.5,2.43,7.21,4.14,12.28,11.66,20.67,13.97,.34,.09,.66,.25,.95,.45,19.47,14.29,43.08,11.41,65,15.49,4.71,.88,9.68,.34,14.19,2.43,.2,.09,.41,.21,.58,.35,4.08,3.08,3.42,7.05,.31,9.9-13.28,12.19-22.2,27.96-34.37,41.03-2.81,3.03-5.91,5.27-10.18,5.44-7.15,.38-14-1.06-20.72-3.32-33.99-12-69.94-15.46-104.72-24.07-37.99-9.4-76.14-18.16-114.23-27.2-.53-.12-1.02-.38-1.4-.77-5.35-5.43-6.24-12.78-7.79-19.72-5.29-23.74-6.89-48.16-13.01-71.77-.97-3.73-.67-7.54,1.03-11.1,.16-.33,.38-.63,.65-.88,0,0,.01-.01,.02-.02,.8-.72,1.11-1.83,.85-2.88-3.99-16.11-7.17-32.35-8.71-48.89-.02-.24-.02-.48,.02-.72,.1-.66,.19-1.33,.29-1.99,.08-.51,.01-1.03-.17-1.51-9.94-25.72,9.41-41.24,21.22-59.38,13.86-23.58,32.67-43.13,51.26-62.86,.06-.06,.11-.13,.17-.19,17.67-22.76,41.27-38,65.94-51.86,20.12-10.82,40.18-21.73,60.38-32.39,4.32-2.28,8.32-5.51,13.35-6.21,.96-.14,1.93,.24,2.58,.95,15.15,16.63,30.03,33.53,45.55,49.8,30.42,31.9,61.3,63.36,91.79,95.2,3.5,3.66,5.9,8.39,8.72,12.71Z"/>
    <path class="cls-3" d="M1268.26,1287.66c19.73,5.26,39.33-.2,58.96-.93,41.85-1.57,83.47-7.75,125.46-6.58-22.19,20.23-45.04,39.64-68.77,58-7.69,4.57-16.5,3.74-24.74,4.24-42.08,2.54-84.13,7.64-126.38,3.41-7.63-2.7-4.8-7.16-1.83-11.55,7.54-11.15,15.83-21.75,23.93-32.49,4.2-4.93,6.93-11.28,13.37-14.1Z"/>
    <path class="cls-2" d="M1179.94,1408.98c15.18-18.06,30.36-36.12,45.54-54.17,3.56-4.38,8.66-4.68,13.66-4.99,38.97-2.37,77.99-3.78,116.99-5.8,6.85-.35,14.25-1.43,19.06,5.63-14.27,17.64-33.32,29.87-50.78,43.78-7.8,6.22-19.06,5.01-28.85,6.31-30.69,4.06-61.42,7.85-92.18,11.31-7.79,.87-15.95,2.29-23.43-2.06Z"/>
    <g>
      <path class="cls-6" d="M1010.21,729.9c-.34-.08,.16-.13,0,0h0Z"/>
      <path class="cls-6" d="M1214.41,731.67c.2,1.51,.81,3.13,1.91,4.89-4.39,4.7-8.02,2.94-10.89-1.6-13.95-22-24.83-26-48-17.78-2.74,.98-5.95,1.42-8.83,1.12-17.49-1.82-32.73,1.58-43.91,16.71-3.68,4.97-9.8,6.73-14.62,2.49-10.71-9.42-21.42-4.4-32.29-1.41-1.43,.39-2.7,1.66-4.12,1.79-19.68,1.81-38.85-8.38-59.05-2.16-3.16,.97-10.11-4.48-12.29-9.92-5.62-13.98-15.29-12.09-25.72-6.98-5.35,2.61-10.54,5.41-15.35,9.26-4.89,3.92-10.96,6.7-18.05,3.43-20.52-9.48-42.23-9.3-64.13-7.34-2.91,.27-6.51,.44-8.78-.97-12.52-7.75-26.55-10.55-40.59-13.44,.27-.89,.59-1.69,.97-2.43,.43,.04,.86,.11,1.29,.2,11.13,.5,21.75,2.56,31.72,8.04,13.98,7.66,29.75,.14,44.23,4.53,1.39,.42,3.03-.07,4.49,.19,23.7,4.22,47.06,10.25,69.25-7.04,6.71-5.23,16.65-1.56,22.14,6.89,6.2,9.54,14.43,13.52,25.69,10.05,.47-.15,.67-.24,.75-.3,.11,.03,.33,.06,.72,.08,22.12,1.53,44.28,5.87,66.24-1.61,2.7-.92,6.04,.58,8.63,2.08,9.06,5.25,16.12,2.21,22.66-4.75,8.08-8.61,18.28-11.86,29.9-11.49,7.02,.22,13.88-.55,20.73-2.73,18.33-5.82,36.16-.12,47.92,15.18,2.13,2.75,3.52,5.74,7.42,5Z"/>
      <path class="cls-6" d="M1293.8,668.5c-4.27,18.73-5.33,19.4-20.54,7.4-5.7-4.49-11.48-3.24-14.59,.78-7.14,9.24-17.77,10.15-27.17,14.06-5.33,2.21-13.35,2.33-13.69,9.41-.41,8.63,10,3.99,13.66,8.53-.15,.8-.37,1.54-.65,2.23-.06,0-.12,0-.18,0-6.95-1.05-15.19-1.51-15.46-10.75-.22-7.8,7.14-10.26,13.2-12.49,9.86-3.63,19.68-6.94,28.1-13.73,5.94-4.8,12.54-4.49,19.53-.51,9.3,5.3,12.73,2.88,13.49-7.92,.45-6.39-3.12-11.48-4.82-17.18-3.11-10.45-.38-15.28,9.45-17.55-8.96,4.83-9.61,12.04-4.47,19.64,3.89,5.74,5.73,11.11,4.13,18.09Z"/>
      <path class="cls-13" d="M1010.21,729.9c-.34-.08,.16-.13,0,0h0Z"/>
      <path class="cls-13" d="M1214.41,731.67c.2,1.51,.81,3.13,1.91,4.89-4.39,4.7-8.02,2.94-10.89-1.6-13.95-22-24.83-26-48-17.78-2.74,.98-5.95,1.42-8.83,1.12-17.49-1.82-32.73,1.58-43.91,16.71-3.68,4.97-9.8,6.73-14.62,2.49-10.71-9.42-21.42-4.4-32.29-1.41-1.43,.39-2.7,1.66-4.12,1.79-19.68,1.81-38.85-8.38-59.05-2.16-3.16,.97-10.11-4.48-12.29-9.92-5.62-13.98-15.29-12.09-25.72-6.98-5.35,2.61-10.54,5.41-15.35,9.26-4.89,3.92-10.96,6.7-18.05,3.43-20.52-9.48-42.23-9.3-64.13-7.34-2.91,.27-6.51,.44-8.78-.97-12.52-7.75-26.55-10.55-40.59-13.44,.27-.89,.59-1.69,.97-2.43,.43,.04,.86,.11,1.29,.2,11.13,.5,21.75,2.56,31.72,8.04,13.98,7.66,29.75,.14,44.23,4.53,1.39,.42,3.03-.07,4.49,.19,23.7,4.22,47.06,10.25,69.25-7.04,6.71-5.23,16.65-1.56,22.14,6.89,6.2,9.54,14.43,13.52,25.69,10.05,.47-.15,.67-.24,.75-.3,.11,.03,.33,.06,.72,.08,22.12,1.53,44.28,5.87,66.24-1.61,2.7-.92,6.04,.58,8.63,2.08,9.06,5.25,16.12,2.21,22.66-4.75,8.08-8.61,18.28-11.86,29.9-11.49,7.02,.22,13.88-.55,20.73-2.73,18.33-5.82,36.16-.12,47.92,15.18,2.13,2.75,3.52,5.74,7.42,5Z"/>
      <path class="cls-13" d="M1293.8,668.5c-4.27,18.73-5.33,19.4-20.54,7.4-5.7-4.49-11.48-3.24-14.59,.78-7.14,9.24-17.77,10.15-27.17,14.06-5.33,2.21-13.35,2.33-13.69,9.41-.41,8.63,10,3.99,13.66,8.53-.15,.8-.37,1.54-.65,2.23-.06,0-.12,0-.18,0-6.95-1.05-15.19-1.51-15.46-10.75-.22-7.8,7.14-10.26,13.2-12.49,9.86-3.63,19.68-6.94,28.1-13.73,5.94-4.8,12.54-4.49,19.53-.51,9.3,5.3,12.73,2.88,13.49-7.92,.45-6.39-3.12-11.48-4.82-17.18-3.11-10.45-.38-15.28,9.45-17.55-8.96,4.83-9.61,12.04-4.47,19.64,3.89,5.74,5.73,11.11,4.13,18.09Z"/>
      <path class="cls-1" d="M1312.63,983.96c0,.25-.1,.5-.27,.69-4.13,4.33-9.69,4.48-15.04,4.48-55.13,.04-110.26,.88-165.36-.37-.05,0-.1,0-.15,0-23.08,2.83-40.07,19.06-60.4,28.02-6.75,2.98-12.61,8.03-20.31,8.89l-2.09,1.26c-2.43,3.39-6.72,4.76-10.13,7-18.86,12.47-37.56,25.09-51.57,43.34-.01,.01-.02,.03-.04,.04-18.05,20.47-36.95,40.25-51.88,63.3-6.1,8.54-10.42,18.29-17.19,26.33-8.34,9.9-2.24,21.14-3.53,31.68-.01,.09-.03,.19-.07,.27-.51,1.36-1.3,2.54-2.37,3.52-.03,0-.06,0-.08,0,8.49,15.91,11.33,32.83,8.97,50.7-.01,.1-.01,.19,0,.29,5.38,30.69,10.76,61.37,16.12,92.06,.7,3.96,1.56,4.77,2.22,8.73,.11,.64-90.34-6.39-134.55-14.25-54.6-9.7-108.33-23.03-161.25-39.25-46.34-14.2-127.1-47-141.33-54.35,28.23,28.68,52.97,53.4,54.25,54.58,29.87,27.62,57.19,57.07,85.46,86.3,.84,.87,1.35,1.94,1.63,3.1l.7,.75c7.56,2.21,12.28,8.26,17.52,13.53,42.99,43.25,85.72,86.75,128.82,129.89,24.45,23.97,46.99,49.91,73.25,72.01,4.22,3.55,29.88,7.29,27.87,14.32-.12,.41-.51,.68-.93,.68-185.19-.01-391.67-.04-576.87-.06-.54,0-.97-.44-.97-.98-.25-97.51-.59-195.01-.71-292.53-.04-35.97,.39-71.95,.61-107.94t.01,0h-.01c.02-90.65,.03-181.29,.05-271.94h0c0-247.89,8.27-253.67,36.7-310.64,40-74.83,91.4-125.97,174.45-148.81,1.39-.39,37.81-7.19,50.78-9.75,14.17-1.85,23.89-10.22,31.59-21.58,.08-.12,.18-.22,.3-.29,3.08-1.88,6.54-3.03,9.62-4.93,.03-.02,.06-.04,.1-.05,15.18-6.56,29.41-15.29,44.92-20.92,11.39-4.12,15.47-11.19,14.8-22.82-7.16-123.37-53.38-224.81-162.07-291.25-40.81-24.95-84.4-43.95-129.22-60.24-.03-.01-.06-.02-.08-.04-12.5-6.23-39.53-17.39-39.58-17.44-.92-.98-2.57-21.73-2.03-21.72,47.3,8.1,104.04,22.42,181.18,48.35,65.2,29.84,122.75,69.52,162.09,131.56,.11,.17,.27,.3,.45,.38,20.38,8.58,42.11,4.07,63.1,5.6,52.43,3.82,103.48,13.18,153.34,29.71,5.05,1.67,10.65,5.51,16.13,.78,.27-.23,.64-.32,.98-.2,66.15,23.68,128.48,54.45,183.03,99.59,2.47,2.04,5.07,4.01,7.05,6.44,.59,.72,1.75,.34,1.75-.59,.11-44.25-9.58-86.92-21.77-129.19-16.33-56.69-41.18-110.08-63.22-164.56-2.52-6.22-12.63-35.74-12.14-35.27,33.36,32.5,71.97,83.65,98.38,121.89,55.25,79.98,79.07,168.87,72.09,265.87-.97,13.44,2.59,23.35,11.14,33.88,38.82,47.78,67.43,101.35,85.96,160.21,3.96,12.57,10.66,24.35,11.27,37.91,.02,.47,.16,1.47,.3,2.13,2.17,10.59,4.35,21.19,6.52,31.78,2.09,9.98,3.99,20,5.33,30.11,0,.03,0,.05,.01,.08,4.9,21.14,6.36,42.64,6.38,64.25,.06,75.22,0,150.43-.03,225.64Z"/>
    </g>
    <path class="cls-17" d="M607.95,457.08c-14.87,17.22-14.87,18.33-32.36,21.72-10.83-15.74-28.66-24.65-44.09-34.1-72.9-44.68-125.3-106.44-153.87-187.02-24.55-69.27-37.31-141.55-50.1-213.73-1.49-8.42-7.93-29.01-1.89-31.7,3.36-1.33,15.89,2.79,17.67,5.35,.92,8.83,.77,13.67,2.02,21.44,.96,5.43,5.72,34.86,8.13,47.7,3.7,19.73,7.38,39.7,15.63,58.3,2.3,2.26,3.29,5.02,3.12,8.21-4.13,20.37,39.55,44.71,44.97,62.93,7.35,24.69-1.83,36.82,13,58.33,22.28,25.46,23.3,62.07,49.99,83.95,15.71,15.83,32.46,30.41,51.32,42.45,19.9,14.1,42.11,24.27,62.8,36.98,6.83,4.19,17.72,6.71,13.65,19.17Z"/>
    <path class="cls-4" d="M838.94,677.73c35.9-7.73,67.53,.46,94.77,25.12,4.79,4.33,10.77,8.83,3.78,16.04-6.89,7.12-15.7-5.92-19.29-8.69-24.42-18.87-45.61-19.01-75.29-13.79-10.4,1.83-24.85,6.32-37.48,11.92-2.37,1.05-4.66,2.29-6.82,3.74-3.3,2.2-6.95,4.07-10.67,.33-5.68-5.69,33.68-30.94,50.99-34.66Z"/>
    <path class="cls-14" d="M1218.96,731.88c-1.72,1.47-4.12,1.88-6.23,1.05-6.46-2.55-9.31-6.03-.06-12.72,7.49-5.96,10.94-9.31,21.99-15.28,15.48-7.1,43.55,1.04,51.47,14.99,2.22,3.9,3.2,7.82,.91,11.51-.97,1.56-2.56,2.68-4.38,2.89-3.51,.41-6.33-1.56-9.42-3.79-23.34-16.83-32.98-16.84-54.29,1.35Z"/>
    <path class="cls-20" d="M680.8,414.64c.1,8.25-2.27,12.63-10.04,15.84-18.03,7.43-35.65,15.83-53.44,23.84v.03c-2.43,3.21-5.92,2.8-9.31,2.73-1.36-10.93-11.24-13.25-18.56-17.75-19.86-12.2-41.88-20.84-59.72-36.38-.02-.01-.04-.03-.06-.04v.04c-19.68-10.89-36.56-25.22-51.47-41.97-17.03-13.34-29.48-30.64-41.66-48.17-7.01-10.09-53.14-113.41-69.03-166.3-3.99-11.49-5.74-18.24-8.79-32.59-2.79-10.73-2.97-11.61-4.3-22.08,.01-.05,.02-.1,.03-.15-3.64-20.59-7.93-38.46-9.05-52.65,12.59,6.72,27.55,6.8,39.89,14.22,.04,.02,.08,.04,.12,.06,69.15,23.8,135.01,53.77,189.37,104.29,57.07,53.04,87.41,119.89,99.6,195.87,3.25,20.26,6.16,40.53,6.42,61.16Z"/>
    <path class="cls-22" d="M973.33,1621.52c-32-.14-62.73,0-95.98,0l-22.3-20.4c-22.36-22.34-44.27-45.14-66.35-67.77,0-.05-.01-.11-.02-.16-44.07-44.17-144.62-142.99-144.62-142.99,0,0-110.49-112.14-141.7-143.85,50.09,44.88,70.32,59.5,79.99,65.38,163.33,83.13,329.72,96.3,360.18,96.31,30.46,.01,26.03,.01,39.05,.02,.04,66.95,.09,133.88,.12,200.83,0,6.04,1.06,12.67-8.36,12.62Z"/>
    <path class="cls-12" d="M1120,1321.33c.09-2.36,.18-4.72,.28-7.09,7.31,7.34,14.62,14.67,21.93,22.01-10.79,.07-14.82-9.92-22.21-14.92Z"/>
    <path class="cls-12" d="M1099.31,1282.46c.65-6,1.33-6.58,6.8-6.23,5.76,.37,9.93,1.69,5.78,8.64-3.44-4.72-7.31-7.21-12.58-2.41Z"/>
    <path class="cls-11" d="M918.14,884.99c-13.04-6.49-19.17-22.65-12.69-33.44,7.19-11.98,22.6-16.39,33.44-9.57,12.91,8.12,15.2,22.51,5.71,35.86-.83,1.17-1.64,2.37-2.45,3.56-7.47,4.73-15.53,5.53-24,3.59Z"/>
    <path class="cls-8" d="M807.12,863.36c-10.73,.96-13.54-5.55-13.13-14.8,.93-21.23,30.8-54.49,51.36-57.45,4.91-.71,8.43-.73,10,5.47,5.49,21.69-18.93,62.4-40.53,66.72-2.4,.48-4.98,.06-7.7,.06Z"/>
    <path class="cls-10" d="M1375.18,1349.65c-42.25,1.46-125.83,5.62-149.28,4.66-81.79-4.09-108.42-34.84-117.52-46.76-.13-.18-11.2-13.95-9.7-24.72,.31-1.66,1.46-3.11,3.04-3.7,4.7-1.78,9.11,4.22,15.99,12.98,1.72,2.19,3.59,4.3,5.81,5.99,.19,.15,.37,.31,.54,.49,36.02,39.68,96.36,42.37,104.13,43.48,42.43,1.28,88.59,.54,130.86-2.25,8.26-.55,16.68-3.29,24.87-1.68-6.59,9.27-5.95,8.32-8.72,11.51Z"/>
    <ellipse class="cls-16" cx="871.26" cy="874.84" rx="95.24" ry="102.11"/>
    <ellipse class="cls-9" cx="1233.06" cy="874.84" rx="47.31" ry="74.96"/>
    <ellipse class="cls-15" cx="826.94" cy="827.02" rx="43.49" ry="19.92" transform="translate(-332.56 979.8) rotate(-52.51)"/>
    <ellipse class="cls-15" cx="926.63" cy="862.36" rx="25.15" ry="24.51" transform="translate(-321.59 1072.74) rotate(-52.51)"/>
    <ellipse class="cls-15" cx="1254.78" cy="857.73" rx="16.88" ry="17.77"/>
  </g>
</svg>