<?xml version="1.0" encoding="UTF-8"?>
<svg id="Layer_2" data-name="Layer 2" xmlns="http://www.w3.org/2000/svg" viewBox="0 0 1204.2 1331.9">
  <defs>
    <style>
      .cls-1 {
        fill: #78251d;
      }

      .cls-2 {
        fill: #db672e;
      }

      .cls-3 {
        fill: #dd672a;
      }

      .cls-4 {
        fill: #0f0704;
      }

      .cls-5 {
        fill: #292e36;
      }

      .cls-6 {
        fill: #e5833f;
      }

      .cls-7 {
        fill: #ef872d;
      }

      .cls-8 {
        fill: #591719;
      }

      .cls-9 {
        fill: #fafcfc;
      }

      .cls-10 {
        fill: #cc522f;
      }

      .cls-11 {
        fill: #1f0703;
      }

      .cls-12 {
        fill: #fced80;
      }

      .cls-13 {
        fill: #f19c37;
      }

      .cls-14 {
        fill: #f9fbfc;
      }

      .cls-15 {
        fill: #f0af55;
      }

      .cls-16 {
        fill: #f7a836;
      }

      .cls-17 {
        fill: #180702;
      }

      .cls-18 {
        fill: #e7722c;
      }

      .cls-19 {
        fill: #de642c;
      }

      .cls-20 {
        fill: #964d38;
      }

      .cls-21 {
        fill: #f5f9fa;
      }

      .cls-22 {
        fill: #040511;
      }

      .cls-23 {
        fill: #161a24;
      }

      .cls-24 {
        fill: #8b2f23;
      }

      .cls-25 {
        fill: #333740;
      }

      .cls-26 {
        fill: #f8ba3d;
      }

      .cls-27 {
        fill: #f6ca64;
      }

      .cls-28 {
        fill: #23252f;
      }

      .cls-29 {
        fill: #13151e;
      }

      .cls-30 {
        fill: #b74430;
      }

      .cls-31 {
        fill: #db6630;
      }

      .cls-32 {
        fill: #ea8332;
      }

      .cls-33 {
        fill: #f8d456;
      }

      .cls-34 {
        fill: #eb9a4b;
      }

      .cls-35 {
        fill: #ab3c30;
      }
    </style>
  </defs>
  <g id="Layer_1-2" data-name="Layer 1">
    <g>
      <path class="cls-28" d="M8.09,1330.89c-9.93,1.7-7.92-5.43-7.92-10.87-.02-68.51,0-137.02,0-205.53,0-159.31-.36-318.61,.16-477.92,.29-88.66,23.6-171.27,70.63-246.62,47.36-75.87,112.95-131.6,192.78-171.03,5.14-2.54,8.8-3.63,7.19-11.33-11.86-56.73-13.07-114.66-18.28-172.13-.82-9.04-1.16-18.12-2.16-27.14-.66-5.91,1.51-7.91,6.8-5.6,8.51,3.72,21.79-3.04,25.39,11.47,3.9,4.83,3.76,10.3,2.58,15.94-4.25,8.05-7.59,6.14-10.28-1.04-1.4-3.75-.3-8.28-4.12-12.33,1.03,17.74,4.04,34.3,7.75,50.7,9,39.85,15.96,80.18,27.62,119.42,20.18,67.88,56.48,124.16,116.18,164.27,14.72,9.89,30.19,18.69,44.14,29.7,4.28,3.38,10.69,6.04,6.86,13.66-9.21,6.27-20.33,4.66-30.39,7.41-33.31,6.15-61.46,22.49-87.49,43.47-53.01,42.72-81.32,99.12-92.59,165.15-.28,1.63-.63,3.23-1.14,4.83,.13,48.87,.07,97.71,.09,146.55,0,5.34,.16,10.67-.45,16,1.19,70.1,.22,140.21,.54,210.31,.02,4.12,.07,8.25-.51,12.35,1.06,101.79,.3,203.58,.47,305.37,.01,7.37,.92,14.88-2.1,21.99-1.56,2.99-4.25,3.49-7.3,3.48-81.49-.31-162.98,.68-244.46-.53Z"/>
      <path class="cls-7" d="M260.12,611.47c2.9-31.58,13.24-61.02,28.04-88.62,32.91-61.38,81.25-104.68,149.59-123.41,1.16-.32,2.44-.24,3.66-.34,9.8,.46,19.63,.3,29.35-.54,20.85-1.81,28.96,4.7,29.69,24.92,.31,8.73,3.5,14.52,13.02,16.79,13.8,3.29,21.96,11.28,25.29,26.62,3.07,14.12,8.38,27.32,24.65,35.74,16.11,8.33,30.68,18.58,49.41,20,3.28,.25,6.67,1.84,8.69,4.4,5.31,6.74,10.98,11.52,20.55,10.32,4.43-.55,8.67,3.58,7.46,7.93-2.8,10.07,3.85,18.41,3.7,27.8,.39,3.13-1.59,6.07-1.15,9.48,5.97,1.09,10.83-3.41,16.41-2.22,9.16,.41,17.89,2.1,26.1,6.59,11.51,6.28,24.48,.11,36.4,3.71,1.14,.35,2.49-.06,3.69,.16,19.5,3.46,38.73,8.41,56.98-5.77,5.52-4.29,13.7-1.28,18.22,5.65,5.1,7.83,11.87,11.09,21.14,8.24,1.55-.48-.41-.28,1.21-.17,18.21,1.25,36.43,4.82,54.51-1.32,2.22-.75,4.96,.47,7.1,1.7,7.46,4.31,13.27,1.81,18.65-3.9,6.65-7.06,15.04-9.72,24.6-9.43,5.78,.18,11.42-.45,17.05-2.23,15.09-4.78,29.76-.1,39.44,12.45,1.84,2.38,3.01,4.97,6.63,3.98,20.22-18.87,39.15-11.69,57.7,2.79,.78,.92,1.31,1.91,.55,3.12,1.52,.18,1.02-1.19,1.29-1.83,3.7-8.64,2.55-15.09-7.79-17.72-5.19-1.32-9.55-4.62-14.38-6.79-6.63-2.99-13.41-3.49-19.49,1.74-1.52,1.09-3.18,1.74-5.05,1.78-5.72-.86-12.5-1.23-12.72-8.82-.19-6.4,5.87-8.42,10.86-10.25,8.11-2.97,16.19-5.69,23.12-11.27,4.89-3.93,10.32-3.69,16.08-.41,7.65,4.35,10.48,2.36,11.1-6.5,.37-5.24-2.57-9.41-3.96-14.09-2.56-8.57-.31-12.53,7.78-14.39,1.86,9.05,3.73,18.1,5.59,27.15,1.72,8.2,3.29,16.42,4.39,24.73,4.04,17.35,5.24,34.99,5.26,52.72,.05,61.8,0,123.59-.02,185.39-3.42,3.79-8.1,3.91-12.6,3.91-45.39,.04-90.78,.72-136.14-.31-19.03,2.3-33.03,15.63-49.77,22.99-5.58,2.45-10.41,6.61-16.77,7.29-12.61,1.95-25.79,1.08-33.61,15.46-3.65,6.71-12.55,9.12-21.07,5.88-1.93-.73-4.35-2.13-5.93-1.34-20.24,10.09-35.3-9.52-53.81-9.25-2.91,.04-5.55-1.77-6.18-5.14-.63-3.36,1.01-5.84,3.96-6.89,12.39-4.39,4.04-16.12,8.3-23.45,.84-1.45-2.47-2.92-4.42-3.47-4.37-1.24-9.66-3.77-13.26-1.72-14.38,8.16-27.68,4.32-42.08-.24-9.93-3.14-20.98-2.14-31.84-1.11-14.89,1.4-29.57-2.3-42.99-9.38-8.12-4.28-17.11-9.82-25.45-8.64-16.65,2.36-30.16-5.22-44.86-9.38-6.2-1.75-11.36-4.36-15.12-9.87-5-7.33-11.84-11.38-21.13-9.91-1.22,.19-2.57,.48-3.69,.11-27.53-9.06-59.35-9.82-76.36-39.36-2.32-4.03-5.95-7.1-10.33-8.56-14.57-4.86-27-13.88-40.57-20.67-14.81-7.42-28.61-16.67-34.53-33.63-.96-2.75-2.37-5.3-5.25-6.59-17.93-7.99-34.01-19.49-51.92-27.54-1.88-.85-3.75-1.85-5.27-3.23-14.11-12.94-15.57-17.71-4.35-28.15,2.92-2.71,4.23-6.14,1.91-10.02-1.12-1.88-2.83-3.34-4.97-3.21-4.39,.27-4.31,4.33-5.48,7.25-2,4.99-3.43,9.97-3.29,15.57,.22,9.25-1.67,11.95-11.2,19.57-1.9-4.47-2.08-8.6-.32-12.88Z"/>
      <path class="cls-16" d="M651.26,574.41c.35-10.17-11.14-17.96-4.47-30.31,2.36-4.37-7.73-5.55-11.54-3.81-5.92,2.71-7.86,1.89-10.19-4.08-5.56-14.25-19.79-11.29-30.78-13.41-7.69-1.48-13.61-4.12-19.54-9.02-5.81-4.8-11.35-10.04-19.52-12.12-6.16-1.57-9.85-7-13.31-14.03-6.39-12.95-3.34-30.18-17.55-39.5-3.84-2.52-7.57-4.62-12.29-5.16-10.18-1.17-16.79-9.91-15.8-20.31,1.46-15.22-7.63-24.27-22.57-21.21-11.21,2.29-21.6-.68-32.29-2.37,10.7-2.1,21.39-4.19,32.09-6.29,11.72-1.52,19.74-8.45,26.09-17.85,2.59-1.6,5.51-2.55,8.11-4.16,12.5-5.38,24.22-12.56,37.01-17.17,9.37-3.38,12.73-9.18,12.17-18.71-5.89-101.18-43.93-184.38-133.37-238.88-33.59-20.47-69.47-36.06-106.37-49.42-10.32-5.14-22.63-5.01-32.21-12.12-.84-.89-1.63-1.82-2.37-2.8,.04-5.83,.08-11.67,.11-17.5,21.27-.11,41.2,6.87,61.47,11.85,29.9,7.35,59.73,15.28,87.82,28.09,53.73,24.51,101.14,57.11,133.52,108.12,2.59,5.1,7.41,4.05,11.85,4.56,18.38,2.11,36.81,4.2,55.26,4.66,10.35,.26,13.58,5.63,16.04,13.57,1.61,5.21,1.37,10.59,1.63,15.94,.47,9.55,1.52,18.87,8.46,26.48,4.22,4.62,4.35,10.76,3.74,16.46-1.51,14.02,4.21,24.13,14.19,33.68,19.16,18.34,40.44,33.79,62.05,48.92,3.79,2.65,8.19,3.81,12.61,4.89,4.82,1.18,10.51,1.88,13.51,5.67,11.83,14.96,29.2,13.24,45.11,16.05,5.67,1,10.44-.86,15.07-4.02,5.14-3.51,11.69-5.1,15.98-.41,5.35,5.86,10.96,5.09,16.74,3.23,18.08-5.86,38.41-6.07,52.91-21.18,3.72-3.87,9.79-4.26,14.24-7.28,9.84-6.68,10.61-11.93,3.63-21.31-4.38-5.89-10.63-10.47-12.83-17.94,1.04-38.42-7.26-75.35-17.83-111.9-13.44-46.49-33.89-90.28-52.03-134.97-2.18-5.38-6.81-10.78-2.95-17.36,27.78,26.84,51.98,56.74,73.92,88.4,45.46,65.6,65.07,138.51,59.32,218.06-.8,11.03,2.13,19.15,9.17,27.79,31.94,39.19,55.49,83.12,70.74,131.39,3.32,10.51,9,20.36,9.29,31.76-7.37,3.97-7.91,9.88-3.68,16.11,3.2,4.71,4.72,9.11,3.4,14.84-3.52,15.36-4.38,15.91-16.9,6.07-4.69-3.69-9.45-2.66-12.01,.64-5.87,7.58-14.62,8.32-22.36,11.53-4.39,1.82-10.99,1.92-11.27,7.72-.34,7.08,8.23,3.27,11.24,6.99-1.01,5.45-6.04,7.34-9.58,10.39-4.28,3.68-6.1,7.34-2.88,12.47-3.61,3.86-6.59,2.41-8.96-1.31-11.48-18.04-20.43-21.32-39.5-14.58-2.26,.8-4.89,1.16-7.27,.91-14.39-1.5-26.93,1.3-36.14,13.71-3.02,4.08-8.06,5.52-12.03,2.04-8.81-7.73-17.62-3.61-26.57-1.16-1.18,.32-2.22,1.36-3.39,1.47-16.2,1.48-31.98-6.88-48.6-1.77-2.6,.8-8.32-3.67-10.12-8.13-4.62-11.46-12.58-9.91-21.16-5.72-4.4,2.15-8.67,4.44-12.63,7.6-4.02,3.21-9.02,5.5-14.86,2.81-16.89-7.78-34.75-7.63-52.77-6.02-2.4,.21-5.36,.36-7.23-.8-10.3-6.36-21.84-8.65-33.4-11.02,2.01-6.71,8.13-7.84,13.53-9.35,28.41-7.92,55.57-5.91,80.62,11.05,2.01,1.36,3.83,3.26,7.44,2.74-.58-6.11-5.29-8.95-9.43-11.87-27.05-19.12-55.66-20.75-85.57-7.36-7.05,3.16-13.47,8.43-21.98,7.04Z"/>
      <path class="cls-26" d="M917,285.06c8.46,6.15,14.19,14.7,19.87,23.18,3.35,5.01-5.18,18.55-13.69,20.39-7.41,1.6-12.56,5.59-17.64,10.57-13.09,12.83-32.09,9.21-47.31,16.46-2.64,1.26-7.1-.71-10.09,2.36-2.95,3.03-4.23,.5-5.18-1.85-4.49-11.05-11.41-9.14-18.1-2.82-4.12,3.88-7.62,4.45-13.11,3.41-10.04-1.9-22.8,1.19-30.07-3.95-15.43-10.92-33.25-16.61-48.77-26.44-18.65-11.82-36.06-25.6-52.49-40.72-13.23-12.18-24.76-23.65-21.27-43.56,1.07-6.13-.56-11.1-6.13-16.13-6.43-5.81-5.86-15.73-6.05-24.24-.56-24.58-4.06-29.39-27.62-28.43-16.8,.69-32.44-5.39-48.92-5.39-3.61,0-5.1-2.16-4.93-5.62,16.84,7.16,34.81,3.43,52.16,4.69,43.15,3.13,85.15,10.81,126.18,24.37,4.27,1.41,9.01,4.69,13.63,.32,54.6,19.44,106.04,44.71,151.06,81.84,3.79,3.12,7.96,6.04,8.49,11.58Z"/>
      <path class="cls-5" d="M917,285.06c-43.5-39.6-95-65.34-149.3-86.28-3.9-1.5-9.54-.94-10.24-7.16,24.26-63.46,48.53-126.94,73.26-191.62,4.57,7.53,8.35,13.75,12.14,19.98,15.68,38.96,31.81,77.74,46.92,116.91,16.71,43.31,26.79,88.26,29.99,134.63,.31,4.54,2.78,10.01-2.77,13.54Z"/>
      <path class="cls-33" d="M926.91,807.33c51.2,.01,102.4,.03,153.6,.04,41.16,43.44,82.32,86.89,123.48,130.33-2.86,4.46-7.53,4.87-12.03,4.87-46.14-.02-92.29,1.12-138.39-.54-3.3-.6-6.15-2.08-8.46-4.59-37.55-40.67-76.49-80.02-114.14-120.6-2.4-2.59-5.65-5.1-4.06-9.51Z"/>
      <path class="cls-8" d="M1048.36,938.68c43.24-.21,86.48-.4,129.72-.63,8.65-.05,17.29-.22,25.93-.34,1.06,28.36-2.38,56.53-4.05,84.76-.61,10.32,2.5,21.39-4.21,30.95-11.84,4.17-24.37,4.63-36.58,5.15-34.16,1.45-68.18,4.79-102.29,6.86-4.6,.28-9.09,.33-12.92-2.8-2.97-2.83-3.44-6.44-3.23-10.26,.09-1.43,.36-2.83,.77-4.2,1.86-9.66,.84-19.38,.58-29.1-.02-10.34-.3-20.67,.04-31.01-.8-13.2,2.1-26.16,2.54-39.28,.12-3.7,.63-7.41,3.71-10.1Z"/>
      <path class="cls-30" d="M954.28,1156.7c-43.09,.27-86.18,.51-129.27,.85-4.84,.04-9.91-1.03-14.41,1.88-1.97,.29-3.93,.72-5.93,.86-9.39,.09-18.77,.18-28.16,0-41.04-.43-81.12-8.34-120.92-17.04-58.93-12.89-116.02-31.59-170.34-58.29-10.75-5.28-19.47-13.89-30.96-17.73-18.04-10.23-30.64-25.64-40.98-43.2,1.45-2.77,3.96-3.2,6.73-3.1,22.54,6.78,42.93,18.7,65.04,26.69,80.95,29.25,164.21,48.18,249.56,58.48,13.07,1.58,26.18,3,39.16,5.29,46.81,10.14,93.22,22.04,140.14,31.7,10.1,2.08,20.47,3.04,30.29,6.33,3.98,1.33,9.48,1.06,10.04,7.3Z"/>
      <path class="cls-6" d="M954.28,1156.7c-27.97-9.87-57.56-12.72-86.18-19.8-31.48-7.79-63.1-15.05-94.65-22.54-4.84-4.52-5.58-10.79-6.9-16.71-4.35-19.54-5.67-39.63-10.71-59.05-.83-3.21-.52-6.5,1.05-9.55,4.39-4.3,7.55-.14,10.58,1.95,5.13,3.55,10.54,6.58,16.46,8.2,37.67,10.33,73.16,26.6,109.59,40.27,9.06,3.4,18.31,4.18,27.66,5.25,7.88,2.72,12.22,11,20.55,13.03,16.08,12.05,35.67,9.63,53.84,13.01,3.97,.74,8.16,.26,11.93,2.12,3.61,2.56,3.1,5.92,.49,8.32-10.93,10.03-18.27,23-28.28,33.76-2.32,2.49-4.86,4.33-8.38,4.47-5.88,.32-11.52-.87-17.05-2.73Z"/>
      <path class="cls-3" d="M1044,1059.6c16.23,4.33,32.37-.16,48.52-.77,34.44-1.29,68.69-6.38,103.24-5.42-18.26,16.65-37.06,32.62-56.59,47.73-6.33,3.76-13.57,3.08-20.36,3.49-34.63,2.09-69.23,6.28-104,2.8-6.28-2.22-3.95-5.89-1.5-9.5,6.21-9.18,13.03-17.9,19.69-26.73,3.46-4.06,5.7-9.28,11-11.6Z"/>
      <path class="cls-2" d="M971.32,1159.43c12.49-14.86,24.98-29.72,37.47-44.58,2.93-3.6,7.13-3.85,11.24-4.1,32.07-1.95,64.18-3.11,96.27-4.77,5.64-.29,11.73-1.18,15.69,4.63-11.75,14.52-27.42,24.58-41.79,36.02-6.42,5.11-15.68,4.12-23.74,5.19-25.25,3.34-50.54,6.46-75.85,9.3-6.41,.72-13.13,1.89-19.28-1.69Z"/>
      <path class="cls-20" d="M807.83,1156.88c.92,.85,1.85,1.7,2.77,2.54,.12,54.07-.06,108.15,.62,162.21,.14,11.29-5.96,10.24-13.21,10.24-175.03-.06-350.06-.05-525.08-.05-81.32,0-162.64,.04-243.96-.01-6.97,0-13.94-.6-20.9-.92,22.22-.23,44.43-.61,66.64-.65,56.42-.1,112.83,0,169.25-.13,4.72-.01,9.98,1.79,14.03-2.49,4.7-4.39,10.64-4.03,16.36-4.04,142.99-.1,285.98-.08,428.97-.05,4.13,0,8.22,.48,12.32,.87,25.43,3.31,50.98,1,76.47,1.68,10.68,.29,11.77-6.29,11.77-14.49,0-39.11-.03-78.22,0-117.33,0-7.82-.11-15.65,.08-23.47,.12-4.95,.19-9.95,3.88-13.92Z"/>
      <path class="cls-11" d="M1131.99,1110.61c-28.84-2.63-57.45,2.76-86.24,2.57-12.32-.08-24.64,1.08-36.96,1.67-12.93-1.19-25.85-2.63-38.81-3.49-11.27-.75-21.45-3.7-29.71-11.78-8.53-3.26-12.43-12.33-20.45-16.25-4.54-4.21-8.97-8.54-13.05-13.2-4.06-4.63-6.29-9.72-3.05-15.82,5.12-5.34,9.4-3.11,13.43,1.46,8.26,8.61,15.92,17.79,23.71,26.8,15.01,17.36,35.37,17.03,55.34,18.73,5.21,.45,10.83-1.1,15.33,2.99,35.7,1.28,71.3-.73,106.87-3.53,6.95-.55,13.88-1.25,20.77,.37,1.65,6.21-4.28,6.69-7.19,9.46Z"/>
      <path class="cls-16" d="M1075.28,569.26c-2.84-8-5.4-16.05-4.39-24.73,4.07,7.78,4.8,16.16,4.39,24.73Z"/>
      <path class="cls-18" d="M260.12,611.47c.16,3.27,.32,6.55,.49,9.96,13.87-8.86,3.29-25.31,11.7-36.03,2.08-2.65,.08-8.3,6.25-8.51,5.82-.19,8.92,3.17,11.6,7.7,2.57,4.35,1.35,7.77-1.66,11.15-11.52,12.91-10.37,19.93,5.69,27.66,9.93,4.78,18.8,11.81,29.97,14.11,3.62,.75,6.38,3.32,8.42,6.8,1.38,2.35,4.59,6.04,5.93,5.64,14.24-4.28,12.74,7.76,16.98,14.85,7.94,13.3,20.04,22.14,34.3,28.55,14.59,6.56,28.02,15.56,43.14,21.2,2.59,.97,4.04,4.99,6.03,7.58,12.19,15.87,25.17,30.13,47.97,28.6,3.7-.25,7.69,2.63,11.43,4.31,7.05,3.17,13.34,6.04,22.13,3.77,7.69-1.99,14.06,5.16,19.29,11.01,1.29,1.44,1.57,5.2,2.55,5.29,15.1,1.33,26.21,15.78,42.53,12.81,13.34-2.42,25.18,2.94,36.58,8.31,16.64,7.83,33.08,11.88,52.02,9.88,12.47-1.32,26.6-2.57,38.35,6.86,4.59,3.68,11.15,3.16,16-1.26,10.36-9.45,21.09-1.62,31.66-.95,.69,.04,1.45,.8,1.98,1.39,2.92,3.26-4.08,28.72-8.28,29.75-2.69,.66-6.75-.13-6.4,3.93,.4,4.68,4.85,3.22,7.91,3.61,10.25,1.32,20.34,3.01,28.17,10.76,1.12,1.11,3.33,2.84,3.96,2.47,10.19-6.05,20.01-6.1,31.32-1.96,3.84,1.41,11.42-2.94,14.56-9.44,3.73-7.74,7.41-16.17,19.22-10.25,3.89,1.95,7.64-7.5,13-1.83-1.12,5.24-6.03,6.42-9.69,8.83-15.52,10.23-30.92,20.59-42.46,35.56-14.86,16.79-30.42,33.02-42.71,51.93-5.02,7-8.57,15-14.15,21.6-6.89,8.15-1.8,17.42-2.92,26.1-.42,1.16-1.08,2.16-1.99,3-3.44,.26-6.21,1.65-8.58,4.27-4.32,4.76-9.78,5.06-15.91,4.39-14.61-1.6-29.61-4.82-41.27,8.81-3.53,4.12-8.26,2.43-9.67-2.36-3.08-10.52-10.89-11.14-19.95-12.76-12.17-2.19-22.66-1.34-34.43,3.39-12.92,5.19-26.61,1.19-35.7-10.1-6.16-7.65-12.86-11.21-22.28-9.99-7.4,.96-13.88-.44-19.19-6.1-3.25-3.46-7.52-4.28-12.18-5.13-14.73-2.68-28.05-9.11-39.79-18.29-4.63-3.62-9.11-7.2-14.73-8.77-8.96-2.51-16.93-6.27-22.78-13.91-2.96-3.88-7.59-4.49-12.25-4.95-20.14-1.96-37.93-10.28-54.85-20.77-3.51-2.18-6.75-5.18-10.91-5.61-21.14-2.17-30.73-17.5-41.13-33.39-7.5-11.46-17.33-22.41-29.65-28.88-21.36-11.21-35.6-28.65-47.83-48.45-.02-52.26-.06-104.52,.01-156.79,0-3.19-.38-6.67,2.16-9.36Z"/>
      <path class="cls-10" d="M716.37,1327.67c-152.79-.02-305.59-.03-458.38-.05-.21-79.68-.48-159.37-.59-239.05-.04-29.3,.32-58.61,.5-87.91,7.25-2.65,7.53,3.26,7.68,7.22,.36,9.16,5.07,15.48,11.66,20.89,5.21,4.28,9.09,9.44,11.87,15.6,5.28,11.67,18.42,16.18,24.93,26.9,1.22,2,4.53,1.58,7,.8,16.85-5.3,33.22-4.99,49.12,3.59,3.21,1.73,7.33,1.08,10.91,2.07,14.02,3.88,29.3,4.5,38.85,18.62,4.03,5.95,11.32,7.54,19,6.34,9.77-1.53,18,.75,22.26,11.08,1.53,3.71,5.41,6.02,9.03,5.6,21.66-2.51,37.69,10.86,55.54,19.09,1.52,.7,3.13,1.01,4.7,1.5,6.33,1.76,10.25,6.74,14.6,11.07,35.37,35.22,70.54,70.66,106,105.79,20.12,19.52,38.66,40.65,60.28,58.65,3.58,2.98,8.29,6.13,5.04,12.22Z"/>
      <path class="cls-19" d="M530.28,1142.39c-9.43-4.31-20.52-3.56-28.26-13.59-6.02-7.81-17.74-3.86-26.9-5.33-7.57-1.21-16.76,1.07-18.61-11.74-1.05-7.26-10.4-8.18-16.29-5.99-9.61,3.59-17.92,.17-22.04-6.27-8.89-13.89-23.11-14.39-36.22-18.07-8.09-2.27-16.07-4.15-24.06-7.36-10.62-4.27-23.39-4.27-34.61,1.23-4.63,2.27-9.15,3.47-12.25-.76-5.55-7.57-15.02-12.95-18.94-19.32-7.86-12.78-17.15-23.61-27.27-34.2-2.85-2.98-1.88-6.99-2.12-10.65-.25-3.86,1.38-8.74-4.81-9.68,.01-74.35,.03-148.69,.04-223.04,5.54,5.11,11.3,9.87,15.66,16.27,8.9,13.06,21.67,21.23,34.83,29.92,12.43,8.21,23.91,19.06,32.2,33.2,7.35,12.53,15.38,27.87,34.39,27.11,4.07-.16,6.96,1.96,10.06,4.05,19.1,12.9,39.15,23.28,63.02,23.28,3.1,0,6.26,.99,7.5,3.57,5.06,10.61,15.46,12.16,24.78,16.33,13.87,6.21,24.88,17.61,39.52,22.9,4.56,1.65,8.3,5.47,13.73,2.74,3.52-1.77,6.83-.37,8.74,2.51,6.41,9.68,15.6,10.43,25.79,8.93,8.23-1.21,13.66,2.01,18.22,9.39,7.64,12.37,25.44,17.12,37.78,9.43,16.59-10.34,31.92-.12,47.76,.91,5.86,.38,3.8,6.24,5.16,9.79,1.05,2.74,2.99,9.97,6.51,3.64,9.23-16.59,24.75-12.06,37.17-10.5,12.49,1.58,20.69,.76,25.35-12.17,1.99,2.96,3.31,4.92,4.63,6.89,7.18,13.2,9.58,27.26,7.59,42.11,4.43,25.21,8.86,50.41,13.28,75.62,.63,3.6,1.22,7.21,1.83,10.82-36.98-4.54-73.99-8.83-110.72-15.34-44.93-7.96-89.14-18.89-132.69-32.19-38.15-11.65-75.32-26.24-111.16-43.98-2.42-.74-6.39-4.49-4.87,2.49,14.25,12.12,24.07,28.61,39.26,39.81,1.68,.18,3.22,.74,4.47,1.89,24.59,22.65,47.69,46.79,70.95,70.77,1.16,1.2,1.56,2.87,1.57,4.58Z"/>
      <path class="cls-25" d="M500.64,376.13c-5.01,12.12-12.09,20.89-27.14,16.68-8.91-12.95-23.07-19.09-35.77-26.87-59.99-36.76-103.11-87.59-126.61-153.9-20.21-57-30.7-116.48-41.23-175.88-1.23-6.93-2.35-13.74-2.34-20.76,0-1.84-1.97-4.24,.78-5.33,2.77-1.1,4.59,.93,6.06,3.04,2.98,4.29,3.23,9.17,3.35,14.2,.06,2.61-1.18,7.85,4.83,4.38,.65,.17,1.31,.31,1.97,.43,2.37,1.77,2.73,4.28,2.62,6.98-4.57,11.45,2.09,21.71,4.07,32.28,3.04,16.23,6.07,32.66,12.86,47.97,1.89,1.86,2.7,4.13,2.57,6.76-3.4,16.76,5.12,31.35,9.58,46.35,6.05,20.32,14.43,40.04,26.63,57.74,18.34,20.95,30.66,46.77,52.63,64.78,12.93,13.03,26.71,25.03,42.23,34.93,16.38,11.61,34.65,19.97,51.68,30.43,5.62,3.45,14.59,5.53,11.24,15.78Z"/>
      <path class="cls-12" d="M810.61,881.97c14.55-18.78,33.99-31.34,54.33-42.76,16.55-8.9,33.06-17.88,49.68-26.65,3.92-2.07,7.52-5.08,12.3-5.23,12.75,13.98,25.24,28.2,38.3,41.88,25.03,26.25,50.44,52.14,75.53,78.33,3.07,3.2,5.1,7.4,7.62,11.13-.89,16.5-1.78,32.99-2.68,49.49-3.97,1.05-6.25-1.66-8.21-4.18-6.54-8.39-15.34-14.08-24.71-18.02-18.49-7.78-36.78-15.99-56.3-21.42-24.84-6.92-49.57-14.32-72.94-25.85-18.46-9.1-38.66-13.82-58.55-19.06-13.01-3.42-15.9-7.02-14.37-17.66Z"/>
      <path class="cls-23" d="M790.15,747.7c-7.21,28.96-27.55,44.93-54.14,54.71-12.31,1.99-24.63,1.68-36.97,.23-31.77-7.91-49.21-29.94-58.83-59.68,1.62-2.57,1.78-5.46,1.72-8.35-.16-8.44,4.92-11.58,12.37-12.37,3.28-.35,6.61-.56,9.88-.27,27.79,2.42,56-1.81,83.49,5.29,2.4,.62,4.9,.71,7.28-.31,7.28-1.13,14.5-2.83,21.95-2.79,15.84,1.42,12.12,13.84,13.25,23.55Z"/>
      <path class="cls-22" d="M755.89,728.25c1.67,4.1,.39,4.93-3.8,4.08-20.7-4.21-41.15-8.33-62.81-4.92-9.52,1.5-20.08-2.01-30.35-2.03-8.88-.01-15.83,.83-14.62,12.29,.3,2.85-1.39,4.56-4.1,5.28-.67-17.23-3.08-34.4,2.64-51.48,13.61-40.68,52.56-63.5,92.06-53.33,40.29,10.37,67.03,52.36,59.24,93.17-1.05,5.52-2.65,10.93-3.99,16.39-2.4-9.05-2.23-19.76-14.51-22.41-1.25-3.58,1.11-6.29,2.28-9.25,3.19-8.06,1.23-14.75-6.06-19.16-6.46-3.91-13.38-4.05-19.44,1.22-6.53,5.67-6.74,12.67-3.57,20.17,1.62,3.84,5.66,5.97,7.03,9.98Z"/>
      <path class="cls-29" d="M985.81,719.55c-.52-15.54,1.74-30.5,9.82-44.08,12.23-20.54,35.65-21.9,50.08-3.02,17.37,22.72,16.69,75.31-1.27,97.31-11.94,14.63-30.94,14.55-43.85-.44-12.34-14.32-15.15-31.62-14.79-49.78Z"/>
      <path class="cls-4" d="M651.26,574.41c12.84-6.31,25.22-13.65,39.46-16.72,29.54-6.36,55.57,.38,77.98,20.67,3.94,3.56,8.86,7.27,3.11,13.2-5.67,5.86-7.67-1.12-10.62-3.4-20.09-15.53-42.79-19.39-67.2-15.11-9.5,1.67-19.6,1.98-27.35,9.1-2.28,.76-4.53,1.63-6.85,2.26-3.64,.99-7.09,5.75-11.03,1.8-4.67-4.68,1.67-7.83,2.5-11.81Z"/>
      <path class="cls-17" d="M1001.26,604.14c-7.17-2.22-11.92-5.04-3-11.49,5.19-3.75,10.31-7.58,15.46-11.37,.88-.4,1.75-.8,2.63-1.2,12.74-5.84,35.84,.85,42.35,12.33,2.19,3.86,2.92,7.73-.72,11.27-3.95,1.67-6.75-.27-9.88-2.53-19.98-14.41-27.76-13.83-46.85,3Z"/>
      <path class="cls-16" d="M1057.99,603.68c-.37-11.79-12.65-23.13-26.99-24.35-4.83-.41-9.76,.46-14.65,.75,6.69-10.13,15.37-6.37,23.51-2.86,5.19,2.24,9.74,6.7,15.53,6.8,9.01,.16,10.01,6.95,9.79,12.55-.25,6.37-3.32,12.57-12.27,12.34,1.97-2.03,3.52-3.63,5.08-5.24Z"/>
      <path class="cls-18" d="M699.04,802.63c12.32-.08,24.65-.15,36.97-.23-12.3,4.27-24.62,3.88-36.97,.23Z"/>
      <path class="cls-31" d="M284.68,39.24c-.05-2.37-.1-4.74-.15-7.11,10.36,5.52,22.67,5.59,32.83,11.7,22.5,11.9,45.94,21.82,67.4,35.89,70.83,46.43,114.49,110.89,127.85,194.41,4.2,26.26,3.2,53.52-1.93,80.12-1.25,6.49-2.27,13-2.39,19.63-2,2.64-4.87,2.3-7.66,2.25-1.12-8.99-9.24-10.9-15.28-14.61-16.34-10.04-34.46-17.15-49.14-29.94-8.18-5.31-9.25-11.69-6.13-21.19,5.79-17.63,9.48-35.77,5.84-54.75-3.1-16.19-3.04-32.82-5.32-49.17-2.03-14.56-7.05-27.71-14.06-40.6-14.73-27.06-32.18-51.6-56.74-70.83-14.72-11.52-31.66-17.39-49.14-22.37-6.03-1.72-11.24,1.4-16.33,4.22-7.27-11.51-9.33-24.35-9.67-37.64Z"/>
      <path class="cls-35" d="M508.29,373.88c-7.28-3.94-2.93-10.39-2.02-14.81,11.76-57.29,3.71-112.25-21.55-164.18-10.84-22.29-24.86-43.21-42.14-61.91-31.49-34.07-69.49-58.37-110.31-79.14-5.25-2.67-12.42-3.03-14.91-10.01,56.97,19.59,111.21,44.26,155.98,85.87,46.96,43.64,71.94,98.66,81.96,161.18,2.67,16.68,5.07,33.35,5.28,50.33,.08,6.79-1.86,10.4-8.26,13.04-14.85,6.12-29.38,13.05-44.03,19.64Z"/>
      <path class="cls-27" d="M810.61,881.97c-.72,9.12,5.74,12.4,12.66,14.14,25.38,6.38,49.83,14.57,73.95,25.36,19.01,8.51,39.64,14.85,60.31,20.14,25.7,6.58,50.63,16.08,73.01,30.75,5.95,3.9,10.14,10.46,15.14,15.8-.13,10.84-.26,21.69-.38,32.53-2.05,9.78,.79,19.82-1.56,29.58l-.39-.15c-23.01-26.61-56.74-30.6-87.39-40.19-33.43-10.45-66.26-22.72-99.89-32.48-22.53-6.53-45.28-12.31-66.52-22.67-5.55-2.71-11.63-4.46-16.35-8.61-3.65-3.2-7.92-6.46-4.83-12.41,11.42-19.44,26.93-35.54,42.25-51.79Z"/>
      <path class="cls-15" d="M768.35,933.77c2.21,10.59,11.44,13.23,19.54,16.87,30.7,13.77,63.7,20.61,95.32,31.42,25.13,8.59,50.24,17.14,75.72,24.59,22.79,6.67,45.01,14.85,67.03,23.66,9.17,3.67,15.78,9.53,17.38,19.82,.22,3.16,.44,6.31,.66,9.47-.71,5.56-5.76,8.35-8.19,12.82-12.58,4.71-25.43,1.87-37.49-.77-21.28-4.64-41.42-14.05-62.63-18.84-40.31-9.1-75.32-32.62-116.29-40.22-20.83-3.86-40.12-14.78-60.3-22.01-3.67-1.32-6.27-3.86-7.98-7.34-8.72-21.53,7.42-34.4,17.23-49.48Z"/>
      <path class="cls-3" d="M1043.74,1050.27c-.39-9.91-1.52-19.86,1.56-29.58,.31,9.91,1.48,19.86-1.56,29.58Z"/>
      <path class="cls-24" d="M716.37,1327.67c-1.23-7.4-8.02-9.76-12.59-14.26-18.38-18.12-36.4-36.6-54.56-54.95-.12-1.24-.4-2.47-1.15-3.46-10.15-13.39-6.47-23.76,10.06-29.02,19.46-6.19,38.53-13.36,56.18-23.83,3.99-2.37,8.27-3.36,12.78-4.11,15.27-2.53,27.85-9.24,35.36-23.56,3.45-6.58,10.42-10.56,13.27-17.62,10.7,0,21.41,.01,32.11,.02,.03,54.28,.08,108.56,.1,162.83,0,4.9,.88,10.27-6.87,10.24-26.32-.12-52.63-.04-78.95-.2-1.92-.01-3.83-1.36-5.75-2.08Z"/>
      <path class="cls-1" d="M775.72,1156.86c.55,1.93,2.2,4.89,1.5,5.63-15.1,15.91-24.67,39.37-52.02,38.92-1.61-.03-3.85-.13-4.75,.81-11.97,12.42-30.23,11.76-43.68,21.17-4.28,2.99-9.2,5.93-14.89,5.17-9.63-1.28-11.39,9.43-18.75,12.14-2.96,1.09,.95,5.44,2.76,8.12,1.92,2.83,8.4,4.36,3.33,9.65-36.23-35.84-72.44-71.7-108.73-107.48-3.16-3.12-5.54-7.26-10.22-8.6-25.66-25.74-51.33-51.49-76.99-77.24,3.41-4.26,5.75-.38,8.23,1.21,53.76,34.37,113.88,52.34,174.8,68.61,38.95,10.4,78.77,15.37,118.42,21.51,6.85,1.06,13.99,.31,20.99,.4Z"/>
      <path class="cls-10" d="M414.02,1025.34c-3.41-1.49-5.75-3.9-7.37-8.23,6.28-1.36,8.64,3.56,12.23,5.74-1.98,.13-3.82,.52-4.87,2.48Z"/>
      <path class="cls-34" d="M751.12,983.25c28.75,10.73,56.41,24.22,86.86,30.53,22.43,4.65,42.85,15.53,63.75,24.85,16.5,7.35,34.65,10.24,51.88,15.86,10.07,3.29,20.1,6.92,30.16,10.29,16.96,5.68,34.72,4.96,52.04,7.64-8.1,10.63-16.19,21.26-24.28,31.89-16.15,1.3-32.07-1.76-48.11-2.59-4.66-.24-8.9-2.41-12.19-5.56-12.77-12.2-26.62-23.44-35.91-38.86-3.23-7.1-5.45-7.53-10.35-1.98-1.13,13.26,10.9,17.84,17.25,26.15,.92,1.98,1.41,3.95-.23,5.83-21,1.73-38.47-8.79-57.15-15.77-28.51-10.66-56.57-22.78-86.07-30.57-8.57-2.26-13.58-8.82-20.45-13.05-3.5-13.86-6.29-27.85-7.58-42.11,.12-.86,.25-1.71,.38-2.57Z"/>
      <path class="cls-15" d="M922,1087.3c.08-1.94,.15-3.89,.23-5.83,6.01,6.04,12.03,12.07,18.05,18.11-8.88,.06-12.2-8.16-18.27-12.28Z"/>
      <path class="cls-15" d="M904.97,1055.32c.53-4.94,1.1-5.42,5.59-5.13,4.74,.3,8.17,1.39,4.76,7.11-2.83-3.89-6.02-5.94-10.35-1.98Z"/>
      <path class="cls-32" d="M294.76,76.4c2.95-14.37,14.59-8.28,20.66-6.39,40.01,12.39,71.21,36.45,91.39,73.81,2.54,4.7,5.09,9.49,8.35,13.7,14.2,18.33,19.21,39.94,20.64,62.15,.73,11.49,1.3,23.2,3.43,34.25,4.26,22.08-.15,42.47-8.09,62.42-3.05,7.68,5.01,9.71,5.08,15.24-16.2-8.96-30.08-20.75-42.35-34.53-3.24-5.65-3.13-11.13-1.13-17.5,15.32-48.88,.05-116.94-43.91-152.82-8.68-7.08-18.23-12.46-29.31-15.26-8.2-2.07-17.23-4.04-18.5-15.13-.01-.12-.09,3.5-2.68,2.67-4.49-7.02-6.22-14.47-3.57-22.61Z"/>
      <path class="cls-13" d="M299.69,98.82c.14-1.23-.04-2.61,.47-3.65,1.63-3.28,1.88-.8,2.23,.66,1.7,6.96,7.67,10.32,13.27,11.44,35.6,7.15,55.17,32.67,70.16,62.14,16.49,32.43,19.46,67.41,13.08,103.08-1.47,8.2-7.8,15.43-5.03,24.55-14.01-10.98-24.26-25.21-34.29-39.64-5.77-8.3-11.6-16.56-17.41-24.84-18.81-33.31-32.82-68.34-37.99-106.51,.65-2.12,.22-3.96-1.4-5.49-3.88-6.84-5.18-14.05-3.1-21.74Z"/>
      <path class="cls-28" d="M304.19,126.05c8.78,36.89,22.38,72.06,37.99,106.51-11.22-8.53-14.45-22.01-19.47-33.86-7.69-18.14-13.06-37.27-19.14-56.07-1.76-5.44-2.55-11.17,.62-16.58Z"/>
      <path class="cls-28" d="M299.69,98.82c1.03,7.25,2.06,14.49,3.1,21.74-1.6,1.5-4.24,2.92-4.64-.02-3.13-23.24-10.2-45.56-15.35-68.33-.92-4.05-1.7-9.1,1.89-12.97,3.36,12.39,6.72,24.77,10.07,37.16-.5,7.94,2.16,15.2,4.93,22.42Z"/>
      <path class="cls-14" d="M755.89,728.25c-10.73-5.34-15.78-18.64-10.45-27.52,5.92-9.85,18.59-13.48,27.52-7.87,10.63,6.68,12.51,18.53,4.7,29.51-.69,.97-1.35,1.95-2.02,2.93-6.15,3.89-12.78,4.55-19.75,2.96Z"/>
      <path class="cls-9" d="M664.54,710.45c-8.83,.79-11.14-4.57-10.81-12.18,.76-17.47,25.34-44.84,42.27-47.27,4.04-.58,6.93-.6,8.23,4.5,4.52,17.84-15.58,51.35-33.35,54.9-1.98,.4-4.1,.05-6.33,.05Z"/>
      <path class="cls-21" d="M1005.41,691.87c-.1-9.84,7.93-21.45,15.29-20.7,10.02,1.03,12.56,9.25,13.99,17.62,1.7,9.98,.53,19.46-10,23.74-7.9,3.21-19.16-9.41-19.28-20.66Z"/>
    </g>
  </g>
</svg>