<?xml version="1.0" encoding="UTF-8"?>
<svg id="Layer_2" data-name="Layer 2" xmlns="http://www.w3.org/2000/svg" xmlns:xlink="http://www.w3.org/1999/xlink" viewBox="0 0 884.82 1596.06">
  <defs>
    <style>
      .cls-1 {
        fill: url(#linear-gradient-2);
      }

      .cls-2 {
        fill: #33200c;
      }

      .cls-3 {
        fill: #fb8506;
      }

      .cls-4 {
        fill: #fe950b;
      }

      .cls-5 {
        fill: #e96a03;
      }

      .cls-6 {
        fill: #33210b;
      }

      .cls-7 {
        fill: #0d0703;
      }

      .cls-8 {
        fill: #301e0d;
      }

      .cls-9 {
        fill: #fd8f08;
      }

      .cls-10 {
        fill: #ea6a02;
      }

      .cls-11 {
        fill: #f8f6f2;
      }

      .cls-12 {
        fill: #fd9109;
      }

      .cls-13 {
        fill: #fdbb24;
      }

      .cls-14 {
        fill: url(#linear-gradient);
      }

      .cls-15 {
        fill: #e76502;
      }

      .cls-16 {
        fill: #fd8505;
      }
    </style>
    <linearGradient id="linear-gradient" x1="510.27" y1="443.55" x2="579.64" y2="443.55" gradientUnits="userSpaceOnUse">
      <stop offset="0" stop-color="#fd9c0c"/>
      <stop offset=".08" stop-color="#fd9f0e"/>
      <stop offset=".4" stop-color="#fda815"/>
      <stop offset="1" stop-color="#fdbb24"/>
    </linearGradient>
    <linearGradient id="linear-gradient-2" x1="350.29" y1="505.59" x2="856" y2="505.59" xlink:href="#linear-gradient"/>
  </defs>
  <g id="Layer_1-2" data-name="Layer 1">
    <path class="cls-6" d="M181.77,1451.61c4.05-5.65,6.68-7.04,10.38,1.02,13.2,28.75,20.56,59.56,32.38,88.81,17.67,43.71,23.92,48.66,71.12,49.98,12.44,.35,24.94,.91,37.32,.06,38.54-.09,21.73-42.37,12.96-64.42-24.36-78.31-40.56-83.73,23.75-145.57,8.68,67.75,16.57,127.05,40.73,188.49,7.28,16.74,19.08,25.79,37.98,25.38,21.39-.47,42.8,.38,64.18-.22,63.26-1.01-7.4-69.18,43.19-177.04,4.7,50.21,15.97,98.3,33.67,144.82,9.83,25.82,17.81,31.39,45.26,31.93,30.13-2.32,99.12,15.77,85-36.41-35.42-101.17,33.81-196.8,36.21-297.88,.3-5.53,1.38-10.5,5.64-14.82,58.77-59.51,61.92-129.93,41.06-205.65,78.88-34.57-45.51-214.5-65-267.46-8.31-20.72-13.13-42.42-19.05-63.83-2.07-7.47-.58-9.74,8.02-10.53,108.36-2.59,198.77-110.2,139.41-215.85-16.21-30.46-39.7-54.39-67.92-73.74-10.18-6.98-16.84-15.08-20.32-27.56-4.07-14.57-11.27-28.34-17.93-42.06-2.69-5.54-2.62-8.74,2.54-12.31,27.19-18.52,15.87-54.58-5.97-72.64-27.9-20.87-26.81-18.98-8.45-48.05,67.92-137.59-81.18-279.55-107.63-158.78-6.77,51.27-4.35,107.23-37.73,150.51-11.04-91.69-115.14-47-140.9,13.51-10.2-50.58-1.28-97.67-.33-147.91,1.19-53.72-44.64-84.95-88.39-45.92-35.37,29.32-52.17,68.91-58.13,113.42-19.34,129.99,77.4,175.79,45.97,207.83-33.2,44.27-45.37,95.1-39.89,149.97,1.27,12.66,3.61,25.98,18.69,30.83,8.9,2.86,2.32,8.91,1.38,11.87-11.34,37.32-30.06,144.3,18.27,160.57,5.05,1.68,5.01,6.12,5.41,9.64,33.49,248.89-20.23,143.02-186.84,208.61-44.24,19.41-76.23,56.31-111.33,88.18-54.02,50.54-104.49,166.9-25.86,216.31,9.39,5.32,11.22,11.4,11.54,21.1,.6,35.97,8.06,72.94,.15,108.5-25.72,70.21-5.86,147.35,11.6,217.34,2.11,6.42,3.55,13.33,8.82,18.31,11.51,11.1,25.68,13.63,41.01,13.27,27.42-3.57,84.75,14.13,73.15-32.47-2.9-35.01-32.52-78.34-5.11-109.14Z"/>
    <path class="cls-7" d="M181.77,1451.61c-30.43,19.46-.32,80.53,3.05,110.03,4.22,18.59-.03,27.15-18.54,28.89-25.53,2.4-51.27,2.57-76.89-1.71-7.12-1.19-8.15-11.77-16.67-8.87,5.09,9.72,13.78,14.29,24.1,14.54,23.37,.57,46.78,.85,70.14,.17,18.02-.52,23.82-7.46,22.99-25.34-.23-39.73-31.54-80.11-8.17-117.72Z"/>
    <path class="cls-4" d="M403.88,831.72c-12.57,115.51-137.26,62.08-213,105.56-60.06,27.05-110.78,81.96-106.21,152.02,8.02-3.98,15.33-7.6,24.09-11.94-1.78,15.46-7.83,28-12.32,40.8-35.48,82.32,1.9,169.77-22.66,253.25-13.94,49.06,2.95,99.85,8.47,149.04,1.16,7.8,3.84,12.05,13.25,11.59,79.07-2.64,54.27,17.66,54.07-59-4.42-74.84,103.5-87.18,110.48-187.36,1.03-8.18-1.9-15.69-3.59-23.39-4.91-22.35-6.44-44.68,.13-67.32,7.56,63.63,54.37,103.77,110.71,107.4,6.88,.95,7.18-2.08,7.88-6.96,1.64-11.3,3.29-22.62,5.73-33.75,.94-4.32,1.35-11.46,8.2-10.22,5.88,1.06,3.68,7.32,3.69,11.43-3.89,88.71,8.28,176.67,28.05,262.99,1.58,7.14,4.68,9.3,11.97,9.11,21.89-.57,43.81-.3,65.72-.28,5.62,0,10.87,.8,10.23-8.05-3.77-52.91,12.09-102.02,29.63-150.8,11.94-31.47,19.92-64.61,36.22-94.25,1.91-3.66,4.17-9.47,9.07-7.55,7.35,3.3,1.07,23.17,.11,29.82-3.07,11.12,2.32,10.55,10.64,9.33,59.68-8.45,85.46-54.69,103.22-105.41,.26-.65,1.61-.85,4.02-2.02,5.14,17.44,.91,33.88-3.38,51.86,81.38-33.42,102.28-133.41,77.42-210.57-4.22-14.05-11.7-27.2-13.02-42.46,1.71,.14,2.79-.11,3.37,.32,20,17.21,36.45,6.47,30.43-18.94-6.32-67.24-47.7-120.84-76.06-179.66-49.3-16.14-82.51-58.35-118.94-92.74-2.36-2.62-7.97-11.57-11.44-12.44-9.57-2.24-12.05-2.68-16.99-10.03-5.81-8.65-11.42-7.91-15.55,.35-4.13,8.25-11.38,10.53-18.84,13.22-2.31,.84-5.66,2.71-6.92,.52-10.37-18.11-27.24-9.12-40.18-7.64-15.43,1.77-26.95-.45-37.78-11.25-14.69-15.89-59.7-7.53-56.21,17.82,5,42.11,13.03,84.51,8.28,127.02-.04,1.19-1.22,.93-1.99,.58Z"/>
    <path class="cls-14" d="M510.48,419.95c2.2,4.08,.36,8.46,.01,12.71-1.35,16.15,3.5,30.49,13.58,42.8,39.71,38.41,79.56-30.35,37.85-74.36-.63,.16-1.26,.31-1.89,.44-19.58-3.86-35.74,2.12-48.85,16.96-.23,.49-.46,.98-.7,1.45"/>
    <path class="cls-1" d="M537.61,638.71c.19,.33,.39,.65,.62,.95,3.01,4,6.14,8.57,9.71,13.86,3.4,5.04,10.33,11.05,10.33,11.05,0,0,28.1,27.04,34.44,45.8-18.21,8-26.63-41.06-33.04-14.53-3.72,13.53-18.17,11.24-27.26,16.28-11.57,5.61-2.65-13.86-10.71-13.32-9.63,1.61-20.58-1.35-28.68,1.5-19.23,6.77-32.41,1.13-43.47-13.67-6.27-10.65-12.85,4.44-18.61-3.97-4.68-7.43-8.51-2.9-13.06,.71-5.01,3.97-6.56,12.92-15.78,11.34-.76-.13-3.27,3.91-2.94,4.3,9.2,10.95,1.13,23.49,3.29,35.29,5.92,32.42,11.34,65.26,4.76,98.31-1.44,7.24-2.39,.39-3.33-.88,5.13-53.02-7.8-104.92-12.02-157.33-.45-6.03-5.38-8.17-12.19-6.64-7.53,1.69-14.5-1.72-16.01-9.44-6.44-20.9-6.69-43.64-4.35-65.43,1.52-31.3,11.99-60.72,19.48-90.74,2.18-8.74,.73-12.07-7.94-8.53-14.19,5.81-18.3-2.83-19.58-13.72-6.01-55.62,15.56-125.1,68.82-151.61-3.13-4.6-5.63-8.26-8.12-11.92,5.71-3.51,13.55,5.35,18.5-3.35,4.92-8.63,14.54-15.58,8.74-27.72-1.1-2.3,.04-4.84,3.47-4.85,7.31,11.02,13.29,8.07,18.1-1.99,9.15-19.18,15.19-39.89,27.87-57.33,13.37-19.66,51.29-59.99,76.51-40.75,18.49,17.75-17.44,37.8,8.26,36.91,18.38-.05,36.79-.63,54.9,3.45,26.59,4.23,161.57,57.14,104.16,89.71-14.32,8.38-32.11,5.94-48.04,6.03-9.33-.8-7.29,4.09-5.34,8.83,8.99,19.4,38.16,4.65,53.38,26.73,14.16,19.57,24.03,40.36,18.56,65.49,29.06,10.13,51.62,29.47,70.89,52.41,109.89,140.63-70.34,230.88-196.22,192.08-1-4.99,44.5-40.54,61.44-47.71,3.27-1.38,11.9,6.96,12.89,7.52,38.25,21.47,81.56,8.21,94.65-29.26,8.12-23.23,9.87-48.67,26.77-68.47,3-7.11,6.26-18.69-3.2-22.35-8.34-3.24-10.67,4.71-13.48,10.46-15.76,35.87-31.09,12.98-57.45,5.78-13.01-2.52-19.21,11.11-6.36,16.92,6.81,4.13,14.12,7.31,21.45,10.44,40.24,15.02,11.02,72.85-25.31,66.98-36.03-1.7-51.28-31.81-74.55-53.32-4.11,14.27,.44,26.5,9.33,37.77,4.78,4.33,7.63,9.41,9.58,14.86-.71-.02,2.69,2.1,1.93,2.2,13.44,6.89-52.25,44.12-57.69,48.18-26.61-4.46-51.02-14.92-74.84-27.14-4.1-2.09-9.33-6.22-13.09-3.85-3.02,1.9-1.06,6.11-.17,7.68Z"/>
    <path class="cls-9" d="M411.97,316.37c14.4,8.16,17.33,7.27,26.16-7.91q6.51-11.19,4.55-28.02c-24.91-75.16-18.83-151.29-12.39-228.35-3.76-20.32-14.71-24.64-31.31-12.33-86.85,69.92-55.3,205,12.99,276.61Z"/>
    <path class="cls-15" d="M282.15,1531.06c34.34,3.18,38.49,2.84,23.58-30.21-4.68-18.26-10.04-36.2-10.08-55.43-.04-20.33,7.97-36.35,21.96-50.35,9.07-10.25,66.03-60.16,30.13-62.65-118.72-28-19.49-30.46-129.66,82.04-4.13,4.01-5.09,7.14-3.12,12.88,10.3,30.01,20.59,60.05,29.52,90.48,4.55,20.64,22.59,11.23,37.65,13.24h0Z"/>
    <path class="cls-10" d="M685.89,1433.83c14.16-51.01,27.77-102.14,36.84-157.29-19.7,12.39-40.77,17.06-56.59,32.07-22.31,21.15-49.34,33.03-79.45,37.73-6.81,1.06-9.65,2.91-8.84,10,3.96,34.91,6.21,70.04,14.57,104.33,3.62,10.16,11.18,9.4,19.16,6.68,22.67-7.71,44.54-17.2,65.25-29.31,2.84-1.66,4.95-5.18,9.05-4.21Z"/>
    <path class="cls-16" d="M635.03,191.16c21.87,4.6,41.29,10.6,59.14,20.32,8.58,4.67,13.3,2.85,18.36-4.47,61.81-78.81-20.52-226.67-43.13-152.95-5.19,47.95-2.14,96.19-34.38,137.1Z"/>
    <path class="cls-5" d="M547.94,653.52c16.97,25.34,144.6,168.32,172.5,152.81-12.6-29.74-22.48-60.36-27.22-92.34-1.56-10.5-5.92-13.32-16.13-13.75-36.3-1.55-99.92-25.59-120.44-40.52-3.53-2.55-5.98-4.03-8.71-6.19Z"/>
    <path class="cls-12" d="M685.89,1433.83c-.78-3.74-1.41-4.1-5.42-1.85-15.38,7.03-76.92,45.1-88.05,28.68,1.4,21.88,8.19,42.69,12.65,63.96,1.11,5.28,3.76,7.29,9.24,7.22,20.35-.23,40.71-.25,61.05,.07,6.53,.1,7.54-2.9,6.45-8.15-6.27-30.33-1.73-60.16,4.08-89.94Z"/>
    <path class="cls-3" d="M67.25,1032.14c-46.01,64.36-52.97,135.26-15.65,161.48,3.49-21.71,5.28-43.25,11.26-63.99-6-32.39-9.25-62.75,4.39-97.48Z"/>
    <path class="cls-4" d="M359.3,633.85c0-13.65,0-27.31,0-40.97-3.44,13.65-3.33,27.31,0,40.97Z"/>
    <path class="cls-8" d="M538.63,330.84c-14.8,1.14-29.14,8.72-38.49,24.56-2.85,4.82-5.2,10.25-.24,15.03,6.17,5.96,9.8-.39,13.52-3.75,25.53-23.52,52.56-7.53,51.47-22.43-1-13.07-14.4-13.63-26.26-13.41Z"/>
    <path class="cls-2" d="M679.28,611.76c49.9,46.73,120.87,21.88,125.03-40.9,1.35-12.91,5.73-23.77,14.1-33.6,9.97-10.36,18.98-37.24-.77-42.05-28.9-4.16-4.42,58.06-57.1,23.16-9.68-6.19-26.31-11.31-31.99,2.99-3.68,9.61,3.51,13.49,10.08,17.08,14.88,10.34,41.13,9.02,39.31,33.36-4.45,50.59-64.55,44.06-91.54,7.53-4.95-6.18-9.69-12.53-14.82-18.55-12.09-9.89-18.31,7.81-13.61,17.64,3.84,13.34,12.91,23.07,21.3,33.35Z"/>
    <path class="cls-13" d="M732.3,402.95c1.45,10.3,2.1,20.54-2.57,30.3-4.69,12.39-22.4,13.5-27.13,.52-5.06-11-7.99-22.13-2.23-33.83-2.98-2.42-5.01-.33-5.27,2.06-1.28,11.77-2.64,23.52,4.01,34.55,20.17,30.73,49.96-10.71,33.18-33.59Z"/>
    <ellipse class="cls-6" cx="546.8" cy="442.28" rx="37.64" ry="47.97" transform="translate(-50.56 71.12) rotate(-7.11)"/>
    <ellipse class="cls-6" cx="715.64" cy="417.52" rx="19.95" ry="25.43" transform="translate(-46.19 91.83) rotate(-7.11)"/>
    <path class="cls-11" d="M541.28,430.44c.06,16.14,29.46,11.74,27.05-5.58-.23-7.29-3.79-13.13-12.69-13.19-10.06-.07-13.89,5.53-14.37,18.77Z"/>
    <path class="cls-11" d="M726.21,406.19c-3.67-8.46-19.54,1.09-14.25,9.59,1.78,3.77,5.13,5.96,10.25,3.8,5.78-2.44,6.72-6.33,4-13.39Z"/>
  </g>
</svg>