<?xml version="1.0" encoding="UTF-8"?>
<svg id="Layer_2" data-name="Layer 2" xmlns="http://www.w3.org/2000/svg" viewBox="0 0 873.26 1648.24">
  <defs>
    <style>
      .cls-1 {
        fill: #050505;
      }
    </style>
  </defs>
  <g id="Layer_1-2" data-name="Layer 1">
    <g>
      <path class="cls-1" d="M316.77,535.24c-23.98-1.28-30.21-7.15-31.01-28.97-2.19-59.34,12.12-114.26,50.23-160.33,11.61-14.04,8.29-20.49-.32-32.47-46.93-65.36-65.16-137.13-43.58-216.27,9.72-35.66,25.35-68.37,58.99-88.16,32.62-19.19,61.23-7.13,70.55,29.36,5.57,21.78,4.16,43.97,1.57,65.96-5.21,44.35-3.85,88.61-.21,133.02,4.32-.35,4.11-3.1,4.91-5.45,15.41-44.93,61.47-76.68,107.61-74.31,19.46,1,33.76,16.61,31.53,34.03-.4,3.14-7.05,6.64,.35,9.83,5.3,2.28,10.61,2.36,14.25-1.74,4-4.5,7.37-9.94,9.62-15.54,7.44-18.5,11.84-37.89,16-57.36,5.93-27.74,5.65-56.11,9.05-84.11,5.04-41.58,32.73-54.29,66.4-29.7,2.9,2.11,5.49,4.67,8.07,7.18,51.39,50.1,66.66,150.4,6.15,214.49,18.25,9.7,35.95,20.04,49.36,36.02,26.03,31.02,17.54,59.42-19.89,68.1,8.28,17.41,19.09,34.2,24.22,52.58,5.23,18.75,16.02,28.76,32.21,37.44,35.84,19.21,62.77,47.41,78.85,85.36,27.77,65.53,4.57,133.64-58.83,165.9-51.27,26.09-105.92,29.39-161.71,16.96-28.64-6.38-55.38-18.42-82.9-28.6,3.27,4.32,6.7,8.2,10.76,11.22,30.93,22.99,64.66,39.32,103.9,40.79,13.96,.53,20.61,5.22,24.67,19.82,7.63,27.4,18.38,53.98,28.65,80.58,17.6,45.58,43.86,87.18,61.39,132.84,10.09,26.28,18.96,52.85,23.03,80.75,4.23,29.04-8.06,44.17-32.42,40.72-.1,.93-.49,1.98-.2,2.78,25.11,66.92,19.21,130.41-22.19,189.29-10.59,15.05-23.94,28.15-36.03,42.15-1.16,1.24-1.58,2.57-.37,3.63,.71,.49,1.21,.48,1.57,.2,2-1.52,4.79-1.56,7.06-.49,4.36,2.06,6.08,6.19,5.14,12.78-5.35,37.47-12.49,74.52-22.69,111.04-12.01,42.96-23.53,86.09-16.86,131.56,2.38,16.24,8.04,31.58,11.67,47.46,4.74,20.77-3.89,31.88-24.92,32.27-15.45,.29-30.91,.32-46.36-.03-19.87-.45-32.85-8.86-40.1-29.02-15.33-42.64-22.43-86.86-30.31-131.14-7.79-43.81-1.62-81.69,32.74-113.67,16.82-15.66,25.46-37.68,30.07-64.42-11.8,17.05-21.75,31.8-35.5,41.82-29.05,21.15-41.37,50.87-48.51,84.12-1.61,7.48-3.73,14.85-5.3,22.34-11.47,54.75-16.2,109.69-3.27,164.88,3.73,15.91-1.66,24.48-18.3,25.06-18,.63-36.04,.59-54.05,.11-24.4-.64-32.33-6.45-39.94-30.33-19.06-59.8-27.09-121.72-33.76-183.79-4.3-40.02-7.17-80.2-10.68-120.31-3.35,17.57-6.96,35.21-7.42,52.94-.31,11.99-5.14,13.01-14.76,12.67-35.69-1.24-78.45-36.36-90.89-75.09-4.25-13.25-5.58-27.12-9.38-40.56-5.85,27.43-4.21,54.11,8.59,79.36,3.38,6.67,2.45,11.63-.75,17.91-16.6,32.53-40.81,59-66.54,84.2-25.87,25.34-36.77,55.77-34.44,91.72,1.58,24.28,8.97,47.03,15.77,70.05,9.21,31.19,2.14,40.78-30.01,41.33-13.38,.23-26.79,.42-40.16-.09-22.01-.84-28.31-5.7-35.09-27.14-12.73-40.27-16.44-82.16-21.32-123.8-3.6-30.66-6.85-61.64,.38-92.02,4.88-20.51,8.8-40.75,9.79-61.93,1.86-39.53,3.04-79.1,7.74-118.54,4.3-36.14,10.34-71.91,16.77-107.66,1.03-3.5,3.05-6.7,1.64-7.33-2.04-.76-3.54,4.41-3.99,5.26-19.18,43.33-26.01,89.74-32.78,136.41-13.71-3.14-22.99-10.87-31.03-20.56-17.74-21.38-22.77-47.11-17.09-72.59,22.89-102.72,87.16-172.73,179.93-217.88,34.4-16.74,72.63-20.47,110.23-24.86,25.84-3.01,41.5-14.51,47.75-38.27,2.59-9.84,4.42-19.92,4.44-30.39,.08-45.35-8.65-89.98-9.82-135.31-20.57,5.03-28.59,.78-32.99-19.99-3.38-15.98-5.49-32.41-6.23-48.73-1.7-37.46,9.05-72.49,21.23-107.34,0,0,.01,0,0,0Zm478.7,34.77c-2.85-7.87-1.05-10.31,4.77-14.21,9.47-6.33,16.58-15.15,23.2-24.47,4.51-6.35,3.87-11.43-1.63-16.05-6.25-5.26-10.97-1.24-15.06,4.21-1.83,2.43-3.7,4.84-5.68,7.15-14.62,17.03-16.55,17.62-34.06,6.31-6.9-4.46-14.48-7.43-22.79-8.15-4.81-.42-9.42,0-12.21,4.55-2.97,4.83,.22,8.91,2.47,12.75,4.67,7.98,13.06,11.24,20.69,15.36,16.19,8.75,24.55,23.63,21.81,38.91-2.97,16.51-17.44,30.32-35.63,30.91-28.32,.92-52.29-8.4-67.4-34.32-2.96-5.07-5.02-13.44-12.62-10.61-7.6,2.83-5.65,11.17-4.75,17.7,1.1,7.99,5.98,14.16,11.52,19.45,20.04,19.14,43.84,29.73,66.78,30.3,49.72,.03,76.06-37.14,60.58-79.8Zm-293.99-98.1c-4.17-9-6.59-18.3-5.5-28.2,1.54-13.92,8.98-26.03,21.41-30.07,15.46-3.77,23.49,6.71,30.18,18.15,2.43,4.17,3.69,9.02,6.36,15.81,1.69-15,.68-26.97-5.21-38.69-13.91-27.69-40.9-31.84-62.26-9.21-28.34,30.02-22.41,82.03,11.98,105.09,13.88,8.72,31.63,.89,42.27-15.3-9.08,2.9-27.09,2.63-39.24-17.58Zm185.63-32.48c2.27,7.48,6.5,12.36,15.22,12.33,9.58-.03,15.95-5.04,18.69-13.24,5.07-15.18,2.94-30.34-3.81-44.67-3.45-7.34-8.79-9.25-16.02-3.98-22.01,15.14-15.71,44.24-14.09,49.57Z"/>
      <path class="cls-1" d="M280.46,1369.6c-15.55,34.02-37.67,62.69-65.2,87.19-5.68,5.05-6.63,9.35-4.7,17.14,11.63,47.02,25.56,93.32,41.59,138.99,8.3,23.63,19.74,31.33,44.92,31.8,14.42,.27,28.86,.39,43.27,0,20.63-.57,28.55-11.32,23.53-30.99-7.82-30.63-20.95-59.62-26.81-90.95-6.26-33.5,1.07-62.66,25.68-85.78,11.32-10.63,5.61-21.7,6.33-32.8,.23-3.6-2.83-3.7-5.42-3.58-31.95,1.49-58.03-12.97-83.2-31.01Z"/>
      <path class="cls-1" d="M726.92,416.09c-1.77-23.89-31.2-15.24-26.92,10.22,1.01,10.77,5.24,19.17,14.3,18.61,10.24-.63,13.54-9.2,12.62-28.84Z"/>
    </g>
  </g>
</svg>